<?xml version="1.0" encoding="utf-8"?>
<!-- Generator: Adobe Illustrator 18.0.0, SVG Export Plug-In . SVG Version: 6.00 Build 0)  -->
<!DOCTYPE svg PUBLIC "-//W3C//DTD SVG 1.1//EN" "http://www.w3.org/Graphics/SVG/1.1/DTD/svg11.dtd">
<svg version="1.1" xmlns="http://www.w3.org/2000/svg" xmlns:xlink="http://www.w3.org/1999/xlink" x="0px" y="0px"
	 viewBox="0 0 612 792" enable-background="new 0 0 612 792" xml:space="preserve">
<g id="V_Spacers" display="none">
	<rect x="422.3" y="166.3" display="inline" fill="#45B2B6" width="6" height="6"/>
	<rect x="435.3" y="166.3" display="inline" fill="#45B2B6" width="6" height="6"/>
	<rect x="319.3" y="103.8" display="inline" fill="#45B2B6" width="6" height="57.4"/>
	<rect x="260.4" y="103.8" display="inline" fill="#45B2B6" width="6" height="57.4"/>
	<rect x="424.6" y="173.9" display="inline" fill="#45B2B6" width="6" height="6"/>
	<rect x="423.4" y="183.8" display="inline" fill="#45B2B6" width="6" height="6"/>
	<rect x="436.4" y="183.8" display="inline" fill="#45B2B6" width="6" height="6"/>
	<rect x="438.1" y="172.9" display="inline" fill="#45B2B6" width="6" height="6"/>
</g>
<g id="H_Spacers" display="none">
	<rect x="247.4" y="188.7" display="inline" fill="#5FBB46" width="98.2" height="6"/>
	<rect x="264.6" y="150.7" display="inline" fill="#5FBB46" width="57.7" height="6"/>
	<rect x="100.1" y="154.2" display="inline" fill="#5FBB46" width="6" height="6"/>
	<rect x="98.9" y="164" display="inline" fill="#5FBB46" width="6" height="6"/>
	<rect x="111.9" y="164" display="inline" fill="#5FBB46" width="6" height="6"/>
	<rect x="113.6" y="153.2" display="inline" fill="#5FBB46" width="6" height="6"/>
	<rect x="101.3" y="171.7" display="inline" fill="#5FBB46" width="6" height="6"/>
	<rect x="100.1" y="181.5" display="inline" fill="#5FBB46" width="6" height="6"/>
	<rect x="113.1" y="181.5" display="inline" fill="#5FBB46" width="6" height="6"/>
	<rect x="114.8" y="170.7" display="inline" fill="#5FBB46" width="6" height="6"/>
</g>
<g id="Logo_Type">
	<g>
		<path d="M48.7,77.6c-7.1,0-13.3-3.2-13.9-10c-0.1-0.4,0.2-0.6,0.6-0.6h4.5c0.4,0,0.6,0.2,0.6,0.6c0.7,3.8,3.9,5.4,8.3,5.4
			c4.7,0,7.4-1.7,7.4-4.9c0-3.3-2.9-4.4-7.7-5.1c-7.1-0.8-12.8-3-12.8-9.4c0-6.3,5.8-9.7,12.7-9.7c7.8,0,12.2,4,12.8,9.3
			c0.1,0.4-0.2,0.6-0.6,0.6l-4.2,0.1c-0.4,0-0.6-0.2-0.7-0.6c-0.7-2.9-2.9-4.7-7.2-4.7c-4.9,0-7.2,1.9-7.2,4.6c0,3.2,1.7,3.7,8,4.8
			c8.5,1.2,12.6,3.6,12.6,9.9C61.8,74.1,56.5,77.6,48.7,77.6z"/>
		<path d="M81.4,77.6c-9.9,0-15-7-15-16.9c0-9.9,5.5-16.9,15.1-16.9c9.8,0,15,7.1,15,16.9C96.4,70.5,91.2,77.6,81.4,77.6z
			 M81.4,48.9c-6.7,0-9,5.7-9,11.8c0,6.3,2.2,11.9,9,11.9c6.9,0,9.1-5.8,9.1-11.9S88.2,48.9,81.4,48.9z"/>
		<path d="M101.7,45.4c0-0.4,0.2-0.6,0.6-0.6h2.6c0.3,0,0.6,0.1,0.7,0.5l1.7,4.4c2.4-3.9,6.4-5.8,10.5-5.8c7.2,0,10.8,4.3,10.8,11.7
			v20.6c0,0.4-0.2,0.6-0.6,0.6h-4.5c-0.4,0-0.6-0.2-0.6-0.6V56.6c0-5.1-1.9-7.5-6.3-7.5c-6.5,0-9,5.5-9,11.8v15.2
			c0,0.4-0.2,0.6-0.6,0.6h-4.5c-0.4,0-0.6-0.2-0.6-0.6L101.7,45.4z"/>
		<path d="M136.6,33c0-0.4,0.2-0.6,0.6-0.6h5.2c0.4,0,0.6,0.2,0.6,0.6v5.1c0,0.4-0.2,0.6-0.6,0.6h-5.2c-0.4,0-0.6-0.2-0.6-0.6V33z
			 M136.9,45.4c0-0.4,0.2-0.6,0.6-0.6h4.6c0.4,0,0.6,0.2,0.6,0.6v30.7c0,0.4-0.2,0.6-0.6,0.6h-4.6c-0.4,0-0.6-0.2-0.6-0.6V45.4z"/>
		<path d="M151.3,32.8c0-0.4,0.2-0.6,0.6-0.6h4.5c0.4,0,0.6,0.2,0.6,0.6v26.6l14.4-14.2c0.2-0.2,0.4-0.3,0.7-0.3h5.6
			c0.6,0,0.7,0.4,0.3,0.7l-10.7,10.8l12.3,19.7c0.2,0.4,0.1,0.7-0.4,0.7h-5.3c-0.4,0-0.6-0.1-0.7-0.4l-9.9-16.2l-6.2,6.2v9.8
			c0,0.4-0.2,0.6-0.6,0.6h-4.5c-0.4,0-0.6-0.2-0.6-0.6V32.8z"/>
		<path d="M180.7,45.4c-0.1-0.4,0.1-0.7,0.6-0.7h4.7c0.4,0,0.6,0.2,0.7,0.6l5.8,24l7.3-23.8c0.1-0.3,0.4-0.5,0.7-0.5h4.3
			c0.4,0,0.6,0.2,0.7,0.5l7.3,23.7l5.8-23.9c0.1-0.4,0.3-0.6,0.7-0.6h4.6c0.5,0,0.7,0.2,0.6,0.7l-8.3,30.7c-0.1,0.4-0.3,0.6-0.7,0.6
			h-4.8c-0.4,0-0.6-0.2-0.7-0.5l-7.4-24l-7.3,24c-0.1,0.3-0.4,0.5-0.7,0.5h-4.7c-0.4,0-0.6-0.2-0.7-0.6L180.7,45.4z"/>
		<path d="M230.6,33c0-0.4,0.2-0.6,0.6-0.6h5.2c0.4,0,0.6,0.2,0.6,0.6v5.1c0,0.4-0.2,0.6-0.6,0.6h-5.2c-0.4,0-0.6-0.2-0.6-0.6V33z
			 M230.9,45.4c0-0.4,0.2-0.6,0.6-0.6h4.6c0.4,0,0.6,0.2,0.6,0.6v30.7c0,0.4-0.2,0.6-0.6,0.6h-4.6c-0.4,0-0.6-0.2-0.6-0.6V45.4z"/>
		<path d="M261.6,49.4c-0.1,0.4-0.3,0.6-0.7,0.6c-0.7-0.1-1.4-0.2-2.2-0.2c-6,0-8.8,4.7-8.8,10.3v16.1c0,0.4-0.2,0.6-0.6,0.6h-4.5
			c-0.4,0-0.6-0.2-0.6-0.6V45.4c0-0.4,0.2-0.6,0.6-0.6h2.3c0.3,0,0.6,0.1,0.7,0.5l2,4.7c1.9-3.8,5.6-5.7,9.4-5.7
			c0.9,0,1.6,0.1,2.4,0.1c0.4,0.1,0.6,0.3,0.5,0.7C261.9,46.5,261.7,47.9,261.6,49.4L261.6,49.4z"/>
		<path d="M292.2,59.8c0,0.5-0.1,1.2-0.1,1.9c0,0.4-0.2,0.6-0.6,0.6H269c0.1,5.8,3.2,10.6,9.1,10.6c4.2,0,6.7-1.8,7.7-5
			c0.1-0.4,0.3-0.6,0.7-0.6h4.4c0.4,0,0.6,0.2,0.6,0.7c-1.2,6.1-6.4,9.6-13.4,9.6c-9.6,0-14.9-6.9-14.9-16.7c0-10,5.7-17,14.9-17
			C287.3,43.8,292.1,50.7,292.2,59.8L292.2,59.8z M286.3,58c-0.1-5.4-2.7-9.5-8.4-9.5c-5.5,0-8.6,4-8.9,9.5H286.3z"/>
		<path d="M311.9,68.1c0.4,0,0.6,0.2,0.7,0.6c1,4.4,4.7,6.6,10.2,6.6c6,0,9.2-2.6,9.2-6.6c0-3.1-1.6-5.6-6.5-6.3
			c-7.3-0.8-14.8-2.1-14.8-9.1c0-5.8,5.6-8.8,11.5-8.8c7.1,0,10.8,3.4,11.8,8c0.1,0.4-0.1,0.7-0.6,0.7h-1.3c-0.4,0-0.6-0.2-0.7-0.6
			c-0.9-3.3-3.5-5.7-9.1-5.7c-6.3,0-8.8,2.8-8.8,6.2c0,4.7,2.1,5,12.3,6.7c6.2,1,9.2,4.1,9.2,8.9c0,5.5-4.9,9-12.1,9
			c-7.1,0-12.2-3.1-13.1-8.8c-0.1-0.4,0.2-0.7,0.6-0.7H311.9z"/>
		<path d="M356.4,74.4c0.4-0.1,0.6,0.1,0.7,0.5l0.1,1.1c0.1,0.4-0.1,0.6-0.5,0.7c-1.3,0.3-2.8,0.6-4.6,0.6c-6.4,0-7.7-4.4-7.7-9.9
			V47.7h-5c-0.4,0-0.6-0.2-0.6-0.6V46c0-0.4,0.2-0.6,0.6-0.6h5v-7.1c0-0.3,0.1-0.6,0.4-0.7c0.6-0.2,1.1-0.6,1.6-0.9
			c0.4-0.2,0.7,0,0.7,0.4v8.3h8.8c0.4,0,0.6,0.2,0.6,0.6v1.1c0,0.4-0.2,0.6-0.6,0.6h-8.8v20.8c0,3.7,1.1,6.4,5.2,6.4
			C353.9,74.9,355.2,74.7,356.4,74.4z"/>
		<path d="M362.8,45.9c0-0.4,0.2-0.6,0.6-0.6h1.5c0.4,0,0.6,0.2,0.6,0.6v19.7c0,6.4,2.2,9.5,8,9.5c2.9,0,5.5-1.1,7.5-3
			c3-2.9,3.7-5.8,3.7-11.6V45.9c0-0.4,0.2-0.6,0.6-0.6h1.5c0.4,0,0.6,0.2,0.6,0.6v30.2c0,0.4-0.2,0.6-0.6,0.6h-0.4
			c-0.4,0-0.6-0.2-0.7-0.6l-1.3-5.5c-2.7,4.5-7,6.9-11.3,6.9c-7.2,0-10.5-4.2-10.5-11.3L362.8,45.9z"/>
		<path d="M420.1,76.7c-0.4,0-0.6-0.2-0.7-0.6l-1.1-5.2c-2.4,4-6.5,6.6-11.1,6.6c-9.1,0-13.4-7.8-13.4-16.4
			c0-9.4,4.6-16.8,13.7-16.8c4,0,8.1,2.1,10.9,6.5V32.8c0-0.4,0.2-0.6,0.6-0.6h1.4c0.4,0,0.6,0.2,0.6,0.6v43.4
			c0,0.4-0.2,0.6-0.6,0.6H420.1z M407.6,46.9c-7.1,0-10.8,5.6-10.8,14.2c0,9,4.4,14.1,10.6,14.1c7.2,0,11.3-6,11.3-13.3
			C418.6,53,415.5,46.9,407.6,46.9z"/>
		<path d="M432.7,36.8c-0.4,0-0.6-0.2-0.6-0.6v-3c0-0.4,0.2-0.6,0.6-0.6h2.4c0.4,0,0.6,0.2,0.6,0.6v3c0,0.4-0.2,0.6-0.6,0.6H432.7z
			 M433.1,76.7c-0.4,0-0.6-0.2-0.6-0.6V46c0-0.4,0.2-0.6,0.6-0.6h1.5c0.4,0,0.6,0.2,0.6,0.6v30.1c0,0.4-0.2,0.6-0.6,0.6H433.1z"/>
		<path d="M443.3,61.1c0-9.5,5.1-16.7,14.2-16.7c9.3,0,14.1,7.1,14.1,16.5c0,9.3-4.8,16.7-14.2,16.7
			C448.1,77.6,443.3,70.4,443.3,61.1z M468.8,61c0-7-2.8-14.1-11.3-14.1c-8.4,0-11.3,7.2-11.3,14.1c0,7,2.9,14.2,11.3,14.2
			C466,75.2,468.8,68,468.8,61z"/>
	</g>
</g>
</svg>
