<?xml version="1.0" encoding="utf-8"?>
<!-- Generator: Adobe Illustrator 18.0.0, SVG Export Plug-In . SVG Version: 6.00 Build 0)  -->
<!DOCTYPE svg PUBLIC "-//W3C//DTD SVG 1.1//EN" "http://www.w3.org/Graphics/SVG/1.1/DTD/svg11.dtd">
<svg version="1.1" xmlns="http://www.w3.org/2000/svg" xmlns:xlink="http://www.w3.org/1999/xlink" x="0px" y="0px"
	 viewBox="0 0 436.9 45.5" enable-background="new 0 0 436.9 45.5" xml:space="preserve">
<g id="V_Spacers" display="none">
	<rect x="387.5" y="134.1" display="inline" fill="#45B2B6" width="6" height="6"/>
	<rect x="400.5" y="134.1" display="inline" fill="#45B2B6" width="6" height="6"/>
	<rect x="284.5" y="71.7" display="inline" fill="#45B2B6" width="6" height="57.4"/>
	<rect x="225.7" y="71.7" display="inline" fill="#45B2B6" width="6" height="57.4"/>
	<rect x="389.9" y="141.8" display="inline" fill="#45B2B6" width="6" height="6"/>
	<rect x="388.7" y="151.6" display="inline" fill="#45B2B6" width="6" height="6"/>
	<rect x="401.7" y="151.6" display="inline" fill="#45B2B6" width="6" height="6"/>
	<rect x="403.4" y="140.8" display="inline" fill="#45B2B6" width="6" height="6"/>
</g>
<g id="H_Spacers" display="none">
	<rect x="212.7" y="156.6" display="inline" fill="#5FBB46" width="98.2" height="6"/>
	<rect x="229.9" y="118.6" display="inline" fill="#5FBB46" width="57.7" height="6"/>
	<rect x="65.4" y="122" display="inline" fill="#5FBB46" width="6" height="6"/>
	<rect x="64.2" y="131.9" display="inline" fill="#5FBB46" width="6" height="6"/>
	<rect x="77.2" y="131.9" display="inline" fill="#5FBB46" width="6" height="6"/>
	<rect x="78.9" y="121" display="inline" fill="#5FBB46" width="6" height="6"/>
	<rect x="66.5" y="139.5" display="inline" fill="#5FBB46" width="6" height="6"/>
	<rect x="65.4" y="149.4" display="inline" fill="#5FBB46" width="6" height="6"/>
	<rect x="78.4" y="149.4" display="inline" fill="#5FBB46" width="6" height="6"/>
	<rect x="80" y="138.5" display="inline" fill="#5FBB46" width="6" height="6"/>
</g>
<g id="Logo_Type">
	<g>
		<path fill="#FFFFFF" d="M13.9,45.5c-7.1,0-13.3-3.2-13.9-10c-0.1-0.4,0.2-0.6,0.6-0.6H5c0.4,0,0.6,0.2,0.6,0.6
			c0.7,3.8,3.9,5.4,8.3,5.4c4.7,0,7.4-1.7,7.4-4.9c0-3.3-2.9-4.4-7.7-5.1c-7.1-0.8-12.8-3-12.8-9.4c0-6.3,5.8-9.7,12.7-9.7
			c7.8,0,12.2,4,12.8,9.3c0.1,0.4-0.2,0.6-0.6,0.6l-4.2,0.1c-0.4,0-0.6-0.2-0.7-0.6c-0.7-2.9-2.9-4.7-7.2-4.7
			c-4.9,0-7.2,1.9-7.2,4.6c0,3.2,1.7,3.7,8,4.8c8.5,1.2,12.6,3.6,12.6,9.9C27.1,42,21.8,45.5,13.9,45.5z"/>
		<path fill="#FFFFFF" d="M46.7,45.5c-9.9,0-15-7-15-16.9c0-9.9,5.5-16.9,15.1-16.9c9.8,0,15,7.1,15,16.9
			C61.7,38.4,56.4,45.5,46.7,45.5z M46.7,16.7c-6.7,0-9,5.7-9,11.8c0,6.3,2.2,11.9,9,11.9c6.9,0,9.1-5.8,9.1-11.9
			S53.5,16.7,46.7,16.7z"/>
		<path fill="#FFFFFF" d="M67,13.3c0-0.4,0.2-0.6,0.6-0.6h2.6c0.3,0,0.6,0.1,0.7,0.5l1.7,4.4c2.4-3.9,6.4-5.8,10.5-5.8
			c7.2,0,10.8,4.3,10.8,11.7v20.6c0,0.4-0.2,0.6-0.6,0.6h-4.5c-0.4,0-0.6-0.2-0.6-0.6V24.4c0-5.1-1.9-7.5-6.3-7.5
			c-6.5,0-9,5.5-9,11.8V44c0,0.4-0.2,0.6-0.6,0.6h-4.5c-0.4,0-0.6-0.2-0.6-0.6L67,13.3z"/>
		<path fill="#FFFFFF" d="M101.9,0.9c0-0.4,0.2-0.6,0.6-0.6h5.2c0.4,0,0.6,0.2,0.6,0.6V6c0,0.4-0.2,0.6-0.6,0.6h-5.2
			c-0.4,0-0.6-0.2-0.6-0.6V0.9z M102.2,13.3c0-0.4,0.2-0.6,0.6-0.6h4.6c0.4,0,0.6,0.2,0.6,0.6V44c0,0.4-0.2,0.6-0.6,0.6h-4.6
			c-0.4,0-0.6-0.2-0.6-0.6V13.3z"/>
		<path fill="#FFFFFF" d="M116.6,0.6c0-0.4,0.2-0.6,0.6-0.6h4.5c0.4,0,0.6,0.2,0.6,0.6v26.6L136.7,13c0.2-0.2,0.4-0.3,0.7-0.3h5.6
			c0.6,0,0.7,0.4,0.3,0.7l-10.7,10.8l12.3,19.7c0.2,0.4,0.1,0.7-0.4,0.7h-5.3c-0.4,0-0.6-0.1-0.7-0.4l-9.9-16.2l-6.2,6.2V44
			c0,0.4-0.2,0.6-0.6,0.6h-4.5c-0.4,0-0.6-0.2-0.6-0.6V0.6z"/>
		<path fill="#FFFFFF" d="M146,13.3c-0.1-0.4,0.1-0.7,0.6-0.7h4.7c0.4,0,0.6,0.2,0.7,0.6l5.8,24l7.3-23.8c0.1-0.3,0.4-0.5,0.7-0.5
			h4.3c0.4,0,0.6,0.2,0.7,0.5l7.3,23.7l5.8-23.9c0.1-0.4,0.3-0.6,0.7-0.6h4.6c0.5,0,0.7,0.2,0.6,0.7L181.5,44
			c-0.1,0.4-0.3,0.6-0.7,0.6H176c-0.4,0-0.6-0.2-0.7-0.5l-7.4-24l-7.3,24c-0.1,0.3-0.4,0.5-0.7,0.5H155c-0.4,0-0.6-0.2-0.7-0.6
			L146,13.3z"/>
		<path fill="#FFFFFF" d="M195.9,0.9c0-0.4,0.2-0.6,0.6-0.6h5.2c0.4,0,0.6,0.2,0.6,0.6V6c0,0.4-0.2,0.6-0.6,0.6h-5.2
			c-0.4,0-0.6-0.2-0.6-0.6V0.9z M196.2,13.3c0-0.4,0.2-0.6,0.6-0.6h4.6c0.4,0,0.6,0.2,0.6,0.6V44c0,0.4-0.2,0.6-0.6,0.6h-4.6
			c-0.4,0-0.6-0.2-0.6-0.6V13.3z"/>
		<path fill="#FFFFFF" d="M226.8,17.2c-0.1,0.4-0.3,0.6-0.7,0.6c-0.7-0.1-1.4-0.2-2.2-0.2c-6,0-8.8,4.7-8.8,10.3V44
			c0,0.4-0.2,0.6-0.6,0.6H210c-0.4,0-0.6-0.2-0.6-0.6V13.3c0-0.4,0.2-0.6,0.6-0.6h2.3c0.3,0,0.6,0.1,0.7,0.5l2,4.7
			c1.9-3.8,5.6-5.7,9.4-5.7c0.9,0,1.6,0.1,2.4,0.1c0.4,0.1,0.6,0.3,0.5,0.7C227.1,14.4,227,15.8,226.8,17.2L226.8,17.2z"/>
		<path fill="#FFFFFF" d="M257.4,27.7c0,0.5-0.1,1.2-0.1,1.9c0,0.4-0.2,0.6-0.6,0.6h-22.5c0.1,5.8,3.2,10.6,9.1,10.6
			c4.2,0,6.7-1.8,7.7-5c0.1-0.4,0.3-0.6,0.7-0.6h4.4c0.4,0,0.6,0.2,0.6,0.7c-1.2,6.1-6.4,9.6-13.4,9.6c-9.6,0-14.9-6.9-14.9-16.7
			c0-10,5.7-17,14.9-17C252.6,11.7,257.4,18.6,257.4,27.7L257.4,27.7z M251.6,25.8c-0.1-5.4-2.7-9.5-8.4-9.5c-5.5,0-8.6,4-8.9,9.5
			H251.6z"/>
		<path fill="#FFFFFF" d="M277.2,36c0.4,0,0.6,0.2,0.7,0.6c1,4.4,4.7,6.6,10.2,6.6c6,0,9.2-2.6,9.2-6.6c0-3.1-1.6-5.6-6.5-6.3
			c-7.3-0.8-14.8-2.1-14.8-9.1c0-5.8,5.6-8.8,11.5-8.8c7.1,0,10.8,3.4,11.8,8c0.1,0.4-0.1,0.7-0.6,0.7h-1.3c-0.4,0-0.6-0.2-0.7-0.6
			c-0.9-3.3-3.5-5.7-9.1-5.7c-6.3,0-8.8,2.8-8.8,6.2c0,4.7,2.1,5,12.3,6.7c6.2,1,9.2,4.1,9.2,8.9c0,5.5-4.9,9-12.1,9
			c-7.1,0-12.2-3.1-13.1-8.8c-0.1-0.4,0.2-0.7,0.6-0.7H277.2z"/>
		<path fill="#FFFFFF" d="M321.6,42.3c0.4-0.1,0.6,0.1,0.7,0.5l0.1,1.1c0.1,0.4-0.1,0.6-0.5,0.7c-1.3,0.3-2.8,0.6-4.6,0.6
			c-6.4,0-7.7-4.4-7.7-9.9V15.6h-5c-0.4,0-0.6-0.2-0.6-0.6v-1.1c0-0.4,0.2-0.6,0.6-0.6h5V6.2c0-0.3,0.1-0.6,0.4-0.7
			c0.6-0.2,1.1-0.6,1.6-0.9c0.4-0.2,0.7,0,0.7,0.4v8.3h8.8c0.4,0,0.6,0.2,0.6,0.6V15c0,0.4-0.2,0.6-0.6,0.6h-8.8v20.8
			c0,3.7,1.1,6.4,5.2,6.4C319.2,42.7,320.5,42.6,321.6,42.3z"/>
		<path fill="#FFFFFF" d="M328.1,13.8c0-0.4,0.2-0.6,0.6-0.6h1.5c0.4,0,0.6,0.2,0.6,0.6v19.7c0,6.4,2.2,9.5,8,9.5
			c2.9,0,5.5-1.1,7.5-3c3-2.9,3.7-5.8,3.7-11.6V13.8c0-0.4,0.2-0.6,0.6-0.6h1.5c0.4,0,0.6,0.2,0.6,0.6V44c0,0.4-0.2,0.6-0.6,0.6
			h-0.4c-0.4,0-0.6-0.2-0.7-0.6l-1.3-5.5c-2.7,4.5-7,6.9-11.3,6.9c-7.2,0-10.5-4.2-10.5-11.3L328.1,13.8z"/>
		<path fill="#FFFFFF" d="M385.4,44.6c-0.4,0-0.6-0.2-0.7-0.6l-1.1-5.2c-2.4,4-6.5,6.6-11.1,6.6c-9.1,0-13.4-7.8-13.4-16.4
			c0-9.4,4.6-16.8,13.7-16.8c4,0,8.1,2.1,10.9,6.5V0.6c0-0.4,0.2-0.6,0.6-0.6h1.4c0.4,0,0.6,0.2,0.6,0.6V44c0,0.4-0.2,0.6-0.6,0.6
			H385.4z M372.9,14.8c-7.1,0-10.8,5.6-10.8,14.2c0,9,4.4,14.1,10.6,14.1c7.2,0,11.3-6,11.3-13.3C383.9,20.8,380.7,14.8,372.9,14.8z
			"/>
		<path fill="#FFFFFF" d="M398,4.7c-0.4,0-0.6-0.2-0.6-0.6v-3c0-0.4,0.2-0.6,0.6-0.6h2.4c0.4,0,0.6,0.2,0.6,0.6v3
			c0,0.4-0.2,0.6-0.6,0.6H398z M398.4,44.6c-0.4,0-0.6-0.2-0.6-0.6V13.9c0-0.4,0.2-0.6,0.6-0.6h1.5c0.4,0,0.6,0.2,0.6,0.6V44
			c0,0.4-0.2,0.6-0.6,0.6H398.4z"/>
		<path fill="#FFFFFF" d="M408.6,29c0-9.5,5.1-16.7,14.2-16.7c9.3,0,14.1,7.1,14.1,16.5c0,9.3-4.8,16.7-14.2,16.7
			C413.3,45.5,408.6,38.3,408.6,29z M434.1,28.9c0-7-2.8-14.1-11.3-14.1c-8.4,0-11.3,7.2-11.3,14.1c0,7,2.9,14.2,11.3,14.2
			C431.3,43,434.1,35.9,434.1,28.9z"/>
	</g>
</g>
</svg>
